<svg xmlns="http://www.w3.org/2000/svg" width="289" height="72" viewBox="0 0 289 72">
  <defs>
    <style>
      .cls-1 {
        fill-rule: evenodd;
        fill: #fff;
      }
    </style>
  </defs>
  <path id="forbes" class="cls-1" d="M164.262,0c0.122,0.07-.052,4.763-0.071,5.666q-0.052,8.85-.106,17.7c3.1-1.818,6.372-2.418,10.965-2.921a16.658,16.658,0,0,1,8.516,1.584c9.66,4.25,15.176,17.448,11.178,31.287C191.427,64.8,180.629,73.581,164.3,71.76l-8.411-.915-6.777-1.3q0.177-14.3.355-28.613l-0.036-15.978c-0.379-6.207,1.119-15.343-2.945-17.914-1.137-.719-2.761-0.808-4.365-1.091V3.942ZM0,1.3H58.48q0.16,9.748.319,19.5l-3.371.915c-1.758-7.087-6.147-13.7-13.662-15.169C37.451,5.705,31.692,6.287,26.933,6.3c-0.164,9.09-.667,18.436-0.674,27.944,10.86,0.04,14.457-.675,16.252-9.89h3.016V47.793H42.512C40.668,38.23,37.27,38,26.259,37.9c-0.041,8.108-.638,24.374,3.619,27.909,1.571,1.3,5.043,1.833,7.629,2.006q0.018,1.355.035,2.71H0l0.035-2.71C3,67.529,6.329,66.876,7.771,65c2.478-3.216,1.918-8.42,2.484-13.655q0.142-5.824.284-11.649V28.859c-0.833-7.555.878-16.84-2.626-21.715C6.434,5.086,3.484,4.377,0,4.329V1.3ZM133.532,70.529H102.624q0.036-1.355.071-2.71c2.706-.123,4.846-0.74,5.89-2.534,2.163-3.713,1.994-34.1-.283-37.235-1.146-1.575-3.338-1.589-5.678-2.006V24.037l22.285-4.294q-0.143,5.683-.284,11.368c2.3-6.329,11.832-15.451,20.865-10.03q-2.661,6.774-5.323,13.55c-3.285-1.909-8.69-3.526-13.271-1.619a4.609,4.609,0,0,0-2.307,1.549l-0.177,6.194c-0.608,5.79-.276,22.76,2.023,25.445,1.318,1.541,4.491,1.405,7.1,1.654v2.675ZM76.861,19.744c32.051-.379,33.274,43.578,7.842,50.961a25.069,25.069,0,0,1-9.617,1.126C59.267,70.025,53.32,63.1,51.525,47.406a25.655,25.655,0,0,1,3.158-15.063,23.668,23.668,0,0,1,15.968-11.9C72.547,20.006,74.732,20.255,76.861,19.744ZM246.446,43.5H215.539c-0.138,11.7,4.561,19.221,14.62,20.835a21.485,21.485,0,0,0,8.587-.457c2.28-.689,3.842-1.967,5.713-2.956l1.313,1.619c-0.482,1.259-1.99,2.42-2.981,3.238a27.811,27.811,0,0,1-25.62,4.786c-11.33-3.472-19.907-15.9-16.111-31.6C207.124,13.878,246.583,10.9,246.446,43.5Zm23.705-23.756a48.743,48.743,0,0,1,15.826,2.64q0.161,6.44.319,12.881l-2.377.633c-1.074-4.956-4.41-10.138-8.871-11.825-5.739-2.17-11.855,1.057-10.965,7.426,1.38,9.883,22.368,7.51,24.7,20.905a16.177,16.177,0,0,1-1.809,10.453c-6.434,11.09-23.65,10.112-36.834,6.053q-0.195-7.284-.391-14.57l2.342-.669c2.018,5.377,4.681,10.759,10.078,12.775,5.977,2.232,13.593-.593,12.811-7.32-0.772-6.634-8.553-7.655-13.84-9.854a24.523,24.523,0,0,1-6.529-3.942c-2.319-1.966-3.393-4.782-3.832-8.658-1.006-8.864,6.416-14.235,12.845-16.048C265.6,20.064,267.85,20.3,270.151,19.744ZM75.868,23.087c-2.342.6-3.656,1.1-4.9,2.71-5.935,7.692-6.213,44.245,6.813,42.69a7.238,7.238,0,0,0,5.429-3.379C89.105,56.319,88.791,23,75.868,23.087ZM215.574,39.839l15.543-.317c0.073-6.306-.839-15.506-5.926-16.4C218.787,22,215.536,33.738,215.574,39.839ZM168.307,25.727a37.429,37.429,0,0,0-4.222.985c0,13.653.191,27.839,0.319,41.142,2.357,0.5,5.636.449,7.381-.528C182.049,61.579,185.581,25.615,168.307,25.727Z"/>
</svg>
