<svg xmlns="http://www.w3.org/2000/svg" width="63.938" height="64.56" viewBox="0 0 63.938 64.56">
  <defs>
    <style>
      .cls-1 {
        fill-rule: evenodd;
      }
    </style>
  </defs>
  <path id="df" class="cls-1" d="M614.387,1092.65a15.276,15.276,0,0,1-1.081,3.6,5.085,5.085,0,0,1-1.17,1.58,16.8,16.8,0,0,1-3.621,2.32,2.7,2.7,0,0,0-.249.11,14.126,14.126,0,0,1-9.468,1.19,55.4,55.4,0,0,1-7.486-2.74,39.478,39.478,0,0,1-8.683-4.95,71.421,71.421,0,0,1-14.8-15.73,39.673,39.673,0,0,1-4.414-8.96c-0.078-.21-0.177-0.51-0.294-0.88-0.7-2.05-1.184-3.51-1.437-4.39a25.784,25.784,0,0,1-.678-3.62,10.652,10.652,0,0,1,.227-4.22,18.128,18.128,0,0,1,1.8-4.15,16.582,16.582,0,0,1,2.53-3.48,5.055,5.055,0,0,1,1.655-1.07,15.237,15.237,0,0,1,3.658-.86c1.527-.2,2.512-0.06,2.957.41a15.462,15.462,0,0,1,1.35,2.25c0.678,1.27,1.435,2.72,2.271,4.37s1.324,2.58,1.464,2.81c0.06,0.11.275,0.44,0.647,1a13.332,13.332,0,0,1,.824,1.41,2.194,2.194,0,0,1,.229,1.1,3.138,3.138,0,0,1-1.177,1.95,25.263,25.263,0,0,1-2.363,1.89,28.944,28.944,0,0,0-2.395,1.92,3.158,3.158,0,0,0-1.142,1.74,2.03,2.03,0,0,0,.125.83,5.042,5.042,0,0,0,.371.86c0.14,0.26.314,0.58,0.523,0.97s0.344,0.64.4,0.74a40.777,40.777,0,0,0,15.462,16.44q0.153,0.09.718,0.45c0.377,0.23.687,0.42,0.932,0.58a5.83,5.83,0,0,0,.841.42,1.983,1.983,0,0,0,.815.18,3.168,3.168,0,0,0,1.809-1.04,28.1,28.1,0,0,0,2.062-2.27,27.579,27.579,0,0,1,2.03-2.24,3.164,3.164,0,0,1,2.025-1.06,2.132,2.132,0,0,1,1.075.3,12.094,12.094,0,0,1,1.358.9c0.539,0.41.859,0.64,0.961,0.71,0.223,0.15,1.13.7,2.719,1.63s3,1.78,4.217,2.54a15.409,15.409,0,0,1,2.167,1.48C614.605,1090.14,614.681,1091.14,614.387,1092.65Zm-8.306-26.77a9.874,9.874,0,0,0-9.29-9.87,2.191,2.191,0,0,0-2.353,2.21,2.421,2.421,0,0,0,2.309,2.46,4.918,4.918,0,0,1,3.3,1.57,4.71,4.71,0,0,1,1.342,3.37,2.407,2.407,0,0,0,.671,1.71,2.363,2.363,0,0,0,1.664.77,2.169,2.169,0,0,0,1.665-.59,2.33,2.33,0,0,0,.689-1.63h0Zm9.379,0.49a19.749,19.749,0,0,0-18.58-19.75,2.193,2.193,0,0,0-2.354,2.21,2.423,2.423,0,0,0,2.31,2.46,14.905,14.905,0,0,1,13.96,14.84,2.337,2.337,0,0,0,.658,1.69,2.311,2.311,0,0,0,1.652.76,2.193,2.193,0,0,0,2.354-2.21h0Zm9.378,0.48a28.613,28.613,0,0,0-2.022-10.9,30.125,30.125,0,0,0-15.089-16.04,28.625,28.625,0,0,0-10.758-2.68,2.129,2.129,0,0,0-1.664.59,2.155,2.155,0,0,0-.69,1.62,2.36,2.36,0,0,0,.658,1.7,2.392,2.392,0,0,0,1.652.76,24.281,24.281,0,0,1,8.96,2.26,25.035,25.035,0,0,1,12.575,13.37,24.207,24.207,0,0,1,1.715,9.08,2.423,2.423,0,0,0,2.31,2.46,2.192,2.192,0,0,0,2.353-2.22h0Z" transform="translate(-560.906 -1037.22)"/>
</svg>
